<?xml version="1.0" encoding="UTF-8"?>
<svg xmlns="http://www.w3.org/2000/svg" width="512" height="512" viewBox="0 0 512 512">
  <defs>
    <linearGradient id="g" x1="0" y1="0" x2="1" y2="1">
      <stop offset="0%" stop-color="#4f46e5"/>
      <stop offset="100%" stop-color="#06b6d4"/>
    </linearGradient>
    <filter id="s" x="-20%" y="-20%" width="140%" height="140%">
      <feDropShadow dx="0" dy="8" stdDeviation="12" flood-color="#000" flood-opacity="0.2"/>
    </filter>
  </defs>
  <rect x="16" y="16" width="480" height="480" rx="96" ry="96" fill="url(#g)"/>
  <g filter="url(#s)">
    <circle cx="256" cy="256" r="152" fill="#ffffff" opacity="0.08"/>
  </g>
  <g fill="#ffffff" transform="translate(256 256)">
    <path d="M -88 84 L -22 -108 A 16 16 0 0 1 -7 -118 L 7 -118 A 16 16 0 0 1 22 -108 L 88 84 A 16 16 0 0 1 73 106 L 54 106 A 16 16 0 0 1 39 95 L 21 44 L -21 44 L -39 95 A 16 16 0 0 1 -54 106 L -73 106 A 16 16 0 0 1 -88 84 Z M -6 12 L 6 12 L 0 -12 Z"/>
  </g>
</svg>
