<?xml version="1.0" encoding="UTF-8"?>
<!-- Maskable icon with safe area respected -->
<svg xmlns="http://www.w3.org/2000/svg" width="512" height="512" viewBox="0 0 512 512">
  <defs>
    <linearGradient id="g" x1="0" y1="0" x2="1" y2="1">
      <stop offset="0%" stop-color="#0ea5e9"/>
      <stop offset="100%" stop-color="#6366f1"/>
    </linearGradient>
  </defs>
  <!-- Full-bleed background to survive masking -->
  <rect x="0" y="0" width="512" height="512" fill="url(#g)"/>
  <!-- Safe zone guide (approx 80% radius) hidden by default -->
  <g opacity="0">
    <circle cx="256" cy="256" r="204" fill="none" stroke="#fff" stroke-width="2"/>
  </g>
  <!-- Center glyph kept within safe area -->
  <g fill="#ffffff" transform="translate(256 256) scale(0.85)">
    <path d="M -88 84 L -22 -108 A 16 16 0 0 1 -7 -118 L 7 -118 A 16 16 0 0 1 22 -108 L 88 84 A 16 16 0 0 1 73 106 L 54 106 A 16 16 0 0 1 39 95 L 21 44 L -21 44 L -39 95 A 16 16 0 0 1 -54 106 L -73 106 A 16 16 0 0 1 -88 84 Z M -6 12 L 6 12 L 0 -12 Z"/>
  </g>
</svg>
